<svg width="69" height="48" viewBox="0 0 69 48" fill="none" xmlns="http://www.w3.org/2000/svg">
<rect width="69" height="48" rx="4" fill="white"/>
<g clip-path="url(#clip0_754_1751)">
<path fill-rule="evenodd" clip-rule="evenodd" d="M12 0H60V48H12V0Z" fill="white"/>
<path fill-rule="evenodd" clip-rule="evenodd" d="M14.1127 44.2505H13.9755C13.9755 44.182 13.9411 44.0789 13.9411 44.0443C13.9411 44.0102 13.9411 43.9417 13.8381 43.9417H13.6319V44.2505H13.5288V43.5294H13.8381C13.9755 43.5294 14.0784 43.564 14.0784 43.7009C14.0784 43.804 14.044 43.8386 14.0099 43.8725C14.0442 43.9071 14.0784 43.9415 14.0784 44.0102V44.1474C14.0784 44.182 14.0784 44.182 14.1127 44.182V44.2505ZM13.9755 43.7355C13.9755 43.6324 13.9068 43.6324 13.8724 43.6324H13.6319V43.8386H13.8381C13.9068 43.8386 13.9755 43.804 13.9755 43.7355V43.7355ZM14.5595 43.8728C14.5595 43.4609 14.2161 43.117 13.7693 43.117C13.3572 43.117 13.0135 43.4609 13.0135 43.8728C13.0135 44.3192 13.3572 44.6631 13.7693 44.6631C14.2158 44.6629 14.5595 44.3192 14.5595 43.8728ZM14.4564 43.8728C14.4564 44.2508 14.1473 44.5254 13.7693 44.5254C13.3913 44.5254 13.1166 44.2505 13.1166 43.8728C13.1166 43.5294 13.3916 43.2201 13.7693 43.2201C14.1471 43.2201 14.4564 43.5294 14.4564 43.8728ZM56.7782 29.9946C56.7782 31.0253 56.1255 31.5057 54.9574 31.5057H52.7249V30.475H54.9574C55.1636 30.475 55.3354 30.4409 55.4044 30.3724C55.4729 30.3034 55.5416 30.2003 55.5416 30.0631C55.5416 29.9254 55.4731 29.7882 55.4044 29.7197C55.3354 29.6508 55.1982 29.6166 54.992 29.6166C53.9274 29.582 52.5875 29.6508 52.5875 28.1395C52.5875 27.4522 53.034 26.6964 54.2362 26.6964H56.5377V27.7271H54.4078C54.2021 27.7271 54.0644 27.7271 53.9613 27.7956C53.8582 27.8987 53.7897 28.0017 53.7897 28.1736C53.7897 28.3454 53.8928 28.4485 54.03 28.5175C54.1678 28.5516 54.3052 28.5859 54.477 28.5859H55.0951C55.7478 28.5859 56.1602 28.7232 56.4351 28.964C56.6408 29.2043 56.7782 29.5138 56.7782 29.9946V29.9946ZM51.9345 28.964C51.6596 28.7232 51.2472 28.5859 50.5946 28.5859H49.9765C49.8049 28.5859 49.6672 28.5513 49.53 28.5175C49.3923 28.4485 49.2897 28.3454 49.2897 28.1736C49.2897 28.0017 49.3238 27.8987 49.4613 27.7956C49.5644 27.7271 49.7016 27.7271 49.9078 27.7271H52.0376V26.6964H49.7362C48.4993 26.6964 48.0869 27.4522 48.0869 28.1395C48.0869 29.6505 49.4269 29.582 50.492 29.6166C50.6977 29.6166 50.8354 29.6508 50.9039 29.7197C50.9723 29.7882 51.0416 29.9254 51.0416 30.0631C51.0416 30.2003 50.9726 30.3034 50.9039 30.3724C50.8008 30.4409 50.6635 30.475 50.4574 30.475H48.2244V31.5057H50.4574C51.625 31.5057 52.2779 31.0251 52.2779 29.9946C52.2779 29.5138 52.1407 29.2043 51.9345 28.964V28.964ZM47.5374 30.5099H44.824V29.5479H47.4689V28.5864H44.824V27.693H47.5374V26.6969H43.6903V31.5059H47.5374V30.5099ZM42.4534 26.9374C42.0754 26.7312 41.6289 26.6966 41.0449 26.6966H38.4001V31.5057H39.5677V29.7538H40.8046C41.2165 29.7538 41.4573 29.7885 41.6291 29.96C41.8353 30.2003 41.8353 30.6127 41.8353 30.922V31.5057H42.9686V30.5781C42.9686 30.1316 42.9345 29.9254 42.797 29.6851C42.6939 29.5474 42.4882 29.3758 42.2133 29.2727C42.5221 29.1701 43.0378 28.7578 43.0378 28.0017C43.0376 27.4524 42.8314 27.1431 42.4534 26.9374V26.9374ZM35.9266 26.6966H32.2508L30.7736 28.2769L29.3652 26.6966H24.7277V31.5057H29.2967L30.7739 29.9254L32.1823 31.5057H34.4153V29.8916H35.8581C36.8542 29.8916 37.8508 29.6166 37.8508 28.2769C37.8505 26.9716 36.8198 26.6966 35.9266 26.6966ZM41.5258 28.6893C41.3542 28.7578 41.1824 28.7578 40.9762 28.7578L39.5677 28.7924V27.6927H40.9762C41.1824 27.6927 41.3886 27.6927 41.5258 27.7958C41.6635 27.8648 41.7661 28.002 41.7661 28.2082C41.7661 28.4144 41.6635 28.5862 41.5258 28.6893V28.6893ZM35.9266 28.9296H34.415V27.6927H35.9266C36.339 27.6927 36.6136 27.8648 36.6136 28.2769C36.6136 28.6893 36.3387 28.9296 35.9266 28.9296ZM31.495 29.1012L33.2812 27.2121V31.0938L31.495 29.1012ZM28.7125 30.5099H25.8612V29.5479H28.4032V28.5864H25.8612V27.693H28.7468L30.0178 29.1014L28.7125 30.5099V30.5099ZM53.5833 23.227H51.9345L49.7703 19.62V23.227H47.4348L46.9878 22.162H44.5832L44.1367 23.227H42.7968C42.2472 23.227 41.5258 23.0896 41.1139 22.6772C40.7359 22.2651 40.5297 21.7155 40.5297 20.8566C40.5297 20.1352 40.6328 19.4825 41.1478 18.9673C41.4912 18.5893 42.1097 18.4177 42.8996 18.4177H43.9988V19.4484H42.8996C42.4877 19.4484 42.2469 19.5172 42.0066 19.7233C41.8005 19.9295 41.6974 20.3073 41.6974 20.8225C41.6974 21.3377 41.8005 21.7157 42.0066 21.9563C42.1782 22.1279 42.4877 22.1966 42.7965 22.1966H43.312L44.9608 18.418H46.6785L48.6022 22.9524V18.4177H50.3886L52.4154 21.7499V18.4177H53.5831V23.227H53.5833V23.227ZM39.9458 18.4177H38.7781V23.227H39.9458V18.4177V18.4177ZM37.5066 18.6239C37.1286 18.4177 36.7167 18.4177 36.1328 18.4177H33.4874V23.227H34.621V21.4749H35.8576C36.27 21.4749 36.5449 21.5093 36.7165 21.6811C36.9227 21.9217 36.888 22.3341 36.888 22.6087V23.227H38.0557V22.2651C38.0557 21.853 38.0216 21.6468 37.85 21.4062C37.7469 21.2688 37.5407 21.0969 37.3004 20.9941C37.6092 20.8566 38.1249 20.4789 38.1249 19.7231C38.1252 19.1735 37.8844 18.8642 37.5066 18.6239ZM32.6629 22.231H29.9835V21.269H32.6286V20.2729H29.9835V19.4141H32.6629V18.418H28.8156V23.2273H32.6629V22.231ZM27.9567 18.4177H26.0674L24.6589 21.6811L23.1474 18.4177H21.2925V22.9521L19.3344 18.4177H17.6169L15.5558 23.227H16.7924L17.2389 22.162H19.6434L20.0899 23.227H22.426V19.4484L24.1091 23.227H25.1052L26.7886 19.4484V23.227H27.9565V18.4177H27.9567ZM46.5759 21.1315L45.7855 19.2422L44.9956 21.1315H46.5759ZM36.6136 20.376C36.442 20.4791 36.2702 20.4791 36.0297 20.4791H34.621V19.4143H36.0294C36.2356 19.4143 36.4757 19.4143 36.6134 19.483C36.7506 19.5861 36.8196 19.7236 36.8196 19.9295C36.8196 20.1355 36.7508 20.307 36.6136 20.376V20.376ZM17.651 21.1315L18.4412 19.2422L19.2313 21.1315H17.651V21.1315ZM56.5036 3.33711H15.5212V20.6507L16.9296 17.456H19.9181L20.3305 18.2462V17.456H23.8344L24.6246 19.1735L25.3804 17.456H36.5449C37.0599 17.456 37.5064 17.5591 37.8503 17.8338V17.456H40.9075V17.8338C41.4224 17.5589 42.0751 17.456 42.8311 17.456H47.2624L47.6748 18.2462V17.456H50.9382L51.4193 18.2462V17.456H54.6137V24.189H51.385L50.7669 23.1586V24.189H46.7475L46.301 23.0898H45.3044L44.8579 24.189H42.7627C41.9382 24.189 41.3196 23.9828 40.9077 23.7769V24.189H35.9266V22.6431C35.9266 22.4369 35.8922 22.4025 35.7548 22.4025H35.5832V24.1888H25.9643V23.3299L25.6209 24.1888H23.5941L23.2507 23.3643V24.1888H19.3688L18.9566 23.0896H17.9603L17.5138 24.1888H15.5212V44.4911H56.5036V32.1584C56.0571 32.3646 55.4385 32.4677 54.8202 32.4677H51.8315V32.0553C51.4881 32.3305 50.8695 32.4677 50.2858 32.4677H40.8731V30.922C40.8731 30.7158 40.839 30.7158 40.6669 30.7158H40.4953V32.4677H37.4035V30.6471C36.8885 30.8874 36.3043 30.8874 35.7891 30.8874H35.4455V32.4677H31.6669L30.7739 31.437L29.7778 32.4677H23.697V25.7349H29.8804L30.7736 26.7651L31.7356 25.7349H35.8922C36.3728 25.7349 37.1632 25.8034 37.5066 26.1468V25.7349H41.2165C41.5945 25.7349 42.3162 25.8034 42.7968 26.1468V25.7349H48.3962V26.147C48.7055 25.8721 49.2897 25.7352 49.8047 25.7352H52.9306V26.147C53.2745 25.9067 53.7551 25.7352 54.3737 25.7352H56.5036V3.33711V3.33711Z" fill="#0077A6"/>
</g>
<defs>
<clipPath id="clip0_754_1751">
<rect width="45" height="42" fill="white" transform="translate(12 3)"/>
</clipPath>
</defs>
</svg>
