<svg width="70" height="48" viewBox="0 0 70 48" fill="none" xmlns="http://www.w3.org/2000/svg">
<rect width="70" height="48" rx="4" fill="white"/>
<path d="M45.4148 18.8999L41.5448 26.5462C41.4623 26.7097 41.2223 26.7097 41.1398 26.5462L37.2698 18.8999C37.2323 18.822 37.1573 18.7753 37.0748 18.7753H35.1998C35.0723 18.7753 34.9898 18.9155 35.0498 19.0323L41.1473 30.8832C41.2298 31.0467 41.4548 31.0467 41.5448 30.8832L47.6423 19.0323C47.7023 18.9155 47.6198 18.7753 47.4923 18.7753H45.6173C45.5273 18.7753 45.4523 18.822 45.4148 18.8999Z" fill="#004580"/>
<path d="M47.6127 29.1079L51.4827 21.4616C51.5652 21.2981 51.8052 21.2981 51.8877 21.4616L55.7577 29.1079C55.7952 29.1858 55.8702 29.2325 55.9527 29.2325H57.8277C57.9552 29.2325 58.0377 29.0923 57.9777 28.9755L51.8802 17.1246C51.7977 16.9611 51.5727 16.9611 51.4827 17.1246L45.3852 28.9755C45.3252 29.0923 45.4077 29.2325 45.5352 29.2325H47.4102C47.4927 29.2247 47.5752 29.178 47.6127 29.1079Z" fill="#004580"/>
<path d="M21.16 24.4127C21.97 23.9922 22.4725 23.0812 22.4725 21.9677C22.4725 20.0601 21.04 18.7675 19.0225 18.7675H13.225C13.0975 18.7675 13 18.8687 13 19.0011V30.7664C13 30.8988 13.0975 31 13.225 31H18.775C21.55 31 23.0125 29.762 23.0125 27.3326C23.0125 24.9655 21.16 24.4127 21.16 24.4127ZM15.175 20.5428H18.6175C19.885 20.5428 20.53 21.1034 20.53 22.1468C20.53 23.1902 19.885 23.7508 18.6175 23.7508H15.175C15.055 23.7508 14.95 23.6496 14.95 23.5172V20.7764C14.95 20.644 15.0475 20.5428 15.175 20.5428ZM18.6625 29.2247H15.175C15.0475 29.2247 14.95 29.1235 14.95 28.9911V25.7442C14.95 25.6196 15.0475 25.5106 15.175 25.5106H18.6625C20.3275 25.5106 21.07 26.0011 21.07 27.3637C21.0625 28.7419 20.3425 29.2247 18.6625 29.2247Z" fill="#004580"/>
<path d="M33.0625 24.4127C33.8725 23.9922 34.375 23.0812 34.375 21.9677C34.375 20.0601 32.9425 18.7675 30.925 18.7675H25.12C24.9925 18.7675 24.895 18.8687 24.895 19.0011V30.7664C24.895 30.8988 24.9925 31 25.12 31H30.67C33.445 31 34.9075 29.762 34.9075 27.3326C34.915 24.9655 33.0625 24.4127 33.0625 24.4127ZM27.0775 20.5428H30.52C31.7875 20.5428 32.4325 21.1034 32.4325 22.1468C32.4325 23.1902 31.7875 23.7508 30.52 23.7508H27.0775C26.95 23.7508 26.8525 23.6496 26.8525 23.5172V20.7764C26.8525 20.644 26.95 20.5428 27.0775 20.5428ZM30.5575 29.2247H27.07C26.95 29.2247 26.845 29.1235 26.845 28.9911V25.7442C26.845 25.6196 26.9425 25.5106 27.07 25.5106H30.5575C32.2225 25.5106 32.965 26.0011 32.965 27.3637C32.965 28.7419 32.2375 29.2247 30.5575 29.2247Z" fill="#004580"/>
</svg>
