<svg width="70" height="48" viewBox="0 0 70 48" fill="none" xmlns="http://www.w3.org/2000/svg">
<rect width="70" height="48" rx="4" fill="white"/>
<path d="M13.0913 16H29.2356V32.1443H13.0913V16Z" fill="white"/>
<path d="M37.3078 24.0912L29.2357 16V32.1633L37.3078 24.0912ZM21.1635 24.0912L29.2357 16H13.0913L21.1635 24.0912Z" fill="#DB0011"/>
<path d="M5 24.0912L13.0912 32.1633V16L5 24.0912ZM21.1633 24.0912L13.0912 32.1633H29.2355L21.1633 24.0912Z" fill="#DB0011"/>
<path d="M44.3923 24.566H41.4674V27.453H40.0049V20.6913H41.4674V23.4644H44.3923V20.6913H45.8548V27.453H44.3923V24.566ZM49.3876 27.5859C47.9251 27.5859 46.7285 26.9971 46.7095 25.3827H48.172C48.191 26.1044 48.6089 26.5413 49.4066 26.5413C49.9954 26.5413 50.6791 26.2374 50.6791 25.5726C50.6791 25.0408 50.2233 24.8889 49.4636 24.661L48.9697 24.528C47.9061 24.2241 46.8425 23.8063 46.8425 22.5907C46.8425 21.0902 48.248 20.5774 49.5206 20.5774C50.8311 20.5774 51.9707 21.0332 51.9897 22.5337H50.5272C50.4702 21.9259 50.1093 21.565 49.4256 21.565C48.8748 21.565 48.343 21.8499 48.343 22.4577C48.343 22.9516 48.7988 23.1035 49.7485 23.4074L50.3183 23.5783C51.4769 23.9392 52.2176 24.3381 52.2176 25.4777C52.1986 26.9971 50.7171 27.5859 49.3876 27.5859V27.5859ZM53.0343 20.7103H55.3895C55.8263 20.6913 56.2822 20.7103 56.719 20.7863C57.5357 20.9762 58.1625 21.5081 58.1625 22.4197C58.1625 23.2934 57.6117 23.7303 56.814 23.9392C57.7257 24.1101 58.4094 24.566 58.4094 25.5726C58.4094 27.1111 56.89 27.453 55.7124 27.453H53.0533L53.0343 20.7103ZM55.3895 23.5214C56.0353 23.5214 56.7 23.3884 56.7 22.6097C56.7 21.9069 56.0923 21.717 55.4845 21.717H54.4588V23.5214H55.3895ZM55.5225 26.4463C56.2062 26.4463 56.871 26.2944 56.871 25.4587C56.871 24.623 56.3012 24.471 55.5984 24.471H54.4398V26.4463H55.5225ZM62.2081 27.5859C60.0239 27.5859 59.0552 26.1994 59.0552 24.1291C59.0552 22.0589 60.1378 20.5584 62.2841 20.5584C63.6326 20.5584 64.9432 21.1662 64.9811 22.6856H63.4617C63.3857 22.0019 62.9299 21.66 62.2841 21.66C60.9546 21.66 60.5557 23.0845 60.5557 24.1671C60.5557 25.2497 60.9546 26.5033 62.2271 26.5033C62.8919 26.5033 63.3857 26.1424 63.4807 25.4587H65.0001C64.8482 27.0161 63.6136 27.5859 62.2081 27.5859Z" fill="black"/>
</svg>
