<svg width="70" height="48" viewBox="0 0 70 48" fill="none" xmlns="http://www.w3.org/2000/svg">
<rect width="70" height="48" rx="4" fill="white"/>
<g clip-path="url(#clip0_356_6403)">
<path d="M21.0047 41.0375V38.7715C21.0047 37.9181 20.4609 37.3439 19.5842 37.3362C19.1233 37.3285 18.6478 37.472 18.315 37.9786C18.0659 37.5782 17.6735 37.3362 17.1217 37.3362C16.736 37.3362 16.3592 37.4495 16.0642 37.8724V37.426H15.2783V41.0366H16.0703V39.0346C16.0703 38.4079 16.4179 38.0748 16.9547 38.0748C17.4761 38.0748 17.7399 38.4147 17.7399 39.0267V41.0362H18.5337V39.0342C18.5337 38.4074 18.896 38.0743 19.4172 38.0743C19.9533 38.0743 20.2092 38.4142 20.2092 39.0263V41.0358L21.0047 41.0375ZM32.7437 37.426H31.4598V36.3306H30.666V37.426H29.9337V38.1436H30.666V39.7908C30.666 40.6285 30.9912 41.1275 31.92 41.1275C32.2608 41.1275 32.6533 41.0219 32.9023 40.8483L32.6755 40.176C32.4412 40.3117 32.1845 40.3802 31.9803 40.3802C31.5878 40.3802 31.4598 40.1382 31.4598 39.7758V38.1443H32.7437V37.426ZM39.4441 37.336C38.9911 37.336 38.6961 37.5479 38.493 37.8651V37.426H37.7149V41.0366H38.5V39.0126C38.5 38.4151 38.7568 38.0831 39.27 38.0831C39.4381 38.0807 39.605 38.1116 39.7611 38.174L40.0031 37.4339C39.8293 37.3655 39.6027 37.3354 39.4436 37.3354L39.4441 37.336ZM29.3128 37.7131C28.9351 37.4641 28.4146 37.3354 27.8404 37.3354C26.9256 37.3354 26.3366 37.7738 26.3366 38.4912C26.3366 39.08 26.7751 39.4432 27.5825 39.5565L27.9534 39.6093C28.384 39.6698 28.5873 39.7831 28.5873 39.987C28.5873 40.2662 28.3013 40.4255 27.7642 40.4255C27.2204 40.4255 26.8279 40.2517 26.5633 40.0477L26.1943 40.66C26.6248 40.9772 27.1687 41.1286 27.7576 41.1286C28.8004 41.1286 29.4048 40.6376 29.4048 39.9501C29.4048 39.3154 28.9291 38.9834 28.1433 38.8701L27.7733 38.8164C27.4334 38.7724 27.161 38.704 27.161 38.462C27.161 38.198 27.4177 38.0391 27.8485 38.0391C28.3094 38.0391 28.7556 38.2129 28.9742 38.3487L29.3141 37.714L29.3128 37.7131ZM50.3594 37.3347C49.9064 37.3347 49.6114 37.5466 49.4075 37.8638V37.426H48.6293V41.0366H49.4154V39.0126C49.4154 38.4151 49.6721 38.0831 50.1854 38.0831C50.3534 38.0807 50.5203 38.1116 50.6764 38.174L50.9184 37.4339C50.7446 37.3655 50.518 37.3354 50.359 37.3354L50.3594 37.3347ZM40.2372 39.2309C40.2372 40.3263 40.9997 41.1271 42.1635 41.1271C42.7073 41.1271 43.0697 41.0061 43.4615 40.6965L43.0844 40.0618C42.7896 40.2737 42.4801 40.387 42.1384 40.387C41.5116 40.3793 41.0507 39.9261 41.0507 39.2309C41.0507 38.5357 41.5116 38.0827 42.1384 38.0748C42.4792 38.0748 42.7887 38.1881 43.0844 38.3999L43.4615 37.7652C43.069 37.4557 42.7067 37.3347 42.1635 37.3347C40.9997 37.3347 40.2372 38.1353 40.2372 39.2309ZM47.5944 39.2309V37.426H46.8097V37.866C46.5598 37.5408 46.1829 37.3369 45.6692 37.3369C44.6572 37.3369 43.863 38.1307 43.863 39.2331C43.863 40.3355 44.6568 41.1293 45.6692 41.1293C46.1829 41.1293 46.5598 40.9251 46.8097 40.6002V41.0386H47.5946V39.2322L47.5944 39.2309ZM44.6713 39.2309C44.6713 38.5962 45.0871 38.0748 45.7667 38.0748C46.4161 38.0748 46.8543 38.5737 46.8543 39.2309C46.8543 39.888 46.4161 40.387 45.7667 40.387C45.0871 40.387 44.6711 39.8656 44.6711 39.2309H44.6713ZM35.1919 37.3349C34.1337 37.3349 33.3934 38.1049 33.3934 39.2311C33.3934 40.3793 34.1634 41.1273 35.2445 41.1273C35.7883 41.1273 36.2864 40.9915 36.7246 40.6213L36.3399 40.0394C36.0371 40.2814 35.6517 40.4171 35.2894 40.4171C34.7834 40.4171 34.3227 40.1828 34.2094 39.5327H36.8905C36.8982 39.435 36.9061 39.3365 36.9061 39.2309C36.8982 38.1051 36.2021 37.3347 35.1915 37.3347L35.1919 37.3349ZM35.1761 38.0389C35.6821 38.0389 36.007 38.3562 36.0899 38.9147H34.2164C34.3002 38.3933 34.6168 38.0389 35.1763 38.0389H35.1761ZM54.8855 39.2322V35.9762H54.0996V37.866C53.8506 37.5408 53.4728 37.3369 52.9591 37.3369C51.9471 37.3369 51.1529 38.1307 51.1529 39.2331C51.1529 40.3355 51.9467 41.1293 52.9591 41.1293C53.4728 41.1293 53.8506 40.9251 54.0996 40.6002V41.0386H54.8855V39.2322ZM51.9612 39.2322C51.9612 38.5975 52.377 38.0761 53.0568 38.0761C53.7069 38.0761 54.1445 38.5751 54.1445 39.2322C54.1445 39.8893 53.7069 40.3883 53.0568 40.3883C52.3772 40.3883 51.9612 39.8669 51.9612 39.2322V39.2322ZM25.4309 39.2322V37.426H24.6457V37.866C24.3967 37.5408 24.0189 37.3369 23.5052 37.3369C22.4932 37.3369 21.699 38.1307 21.699 39.2331C21.699 40.3355 22.4928 41.1293 23.5052 41.1293C24.0187 41.1293 24.3967 40.9251 24.6457 40.6002V41.0386H25.43V39.2322H25.4309ZM22.5075 39.2322C22.5075 38.5975 22.9233 38.0761 23.6029 38.0761C24.2524 38.0761 24.6906 38.5751 24.6906 39.2322C24.6906 39.8893 24.2524 40.3883 23.6029 40.3883C22.9233 40.3883 22.5075 39.8669 22.5075 39.2322ZM56.194 40.5177C56.2907 40.5176 56.3836 40.5555 56.4525 40.6233C56.4858 40.6558 56.5123 40.6946 56.5304 40.7374C56.5684 40.8263 56.5684 40.9269 56.5304 41.0157C56.5118 41.0583 56.4854 41.0971 56.4525 41.1299C56.4188 41.1623 56.3795 41.1884 56.3366 41.2069C56.2915 41.2261 56.243 41.2358 56.194 41.2355C56.1445 41.2359 56.0954 41.2262 56.0497 41.2069C56.0063 41.1888 55.9667 41.1627 55.9329 41.1299C55.9 41.0959 55.874 41.0559 55.8561 41.012C55.8181 40.9231 55.8181 40.8226 55.8561 40.7337C55.8743 40.6909 55.9007 40.6521 55.934 40.6195C55.9673 40.5862 56.007 40.56 56.0508 40.5425C56.0965 40.5233 56.1456 40.5136 56.1951 40.5139L56.194 40.5177ZM56.194 41.1535C56.2312 41.1538 56.268 41.1463 56.302 41.1315C56.3349 41.1173 56.3647 41.0971 56.39 41.0718C56.4154 41.0466 56.4357 41.0167 56.4497 40.9838C56.4785 40.9141 56.4785 40.8358 56.4497 40.766C56.4354 40.7333 56.4152 40.7034 56.39 40.678C56.3647 40.6528 56.3349 40.6326 56.302 40.6184C56.2678 40.6044 56.2311 40.5973 56.194 40.5977C56.1564 40.5974 56.119 40.6044 56.084 40.6184C56.0505 40.6323 56.0199 40.6525 55.994 40.678C55.9145 40.7596 55.8914 40.8809 55.9353 40.986C55.9487 41.0191 55.9687 41.049 55.994 41.074C56.0199 41.0995 56.0505 41.1198 56.084 41.1337C56.1188 41.1485 56.1562 41.156 56.194 41.1557V41.1535ZM56.216 40.7055C56.2512 40.7034 56.286 40.7135 56.3146 40.7341C56.3378 40.7532 56.3506 40.7821 56.3491 40.812C56.3502 40.8378 56.3401 40.8627 56.3214 40.8804C56.2994 40.8996 56.2718 40.9111 56.2426 40.9132L56.3526 41.0386H56.2679L56.1667 40.9141H56.134V41.0386H56.0631V40.7058H56.2171L56.216 40.7055ZM56.1331 40.7678V40.8558H56.2151C56.2305 40.856 56.2457 40.8522 56.2591 40.8446C56.27 40.8369 56.2762 40.8242 56.2756 40.8109C56.2762 40.7979 56.27 40.7855 56.2591 40.7781C56.2459 40.7702 56.2306 40.7663 56.2151 40.7669H56.1331V40.7678Z" fill="#231F20"/>
<path d="M55.7084 29.0268V28.5893H55.8844V28.5002H55.4347V28.5893H55.6107V29.0268H55.7075H55.7084ZM56.5807 29.0268V28.4988H56.4432L56.2841 28.8612L56.1259 28.4988H55.988V29.0268H56.0857V28.6291L56.2344 28.9723H56.3356L56.4843 28.6282V29.0268H56.5811H56.5807Z" fill="#F79410"/>
<path d="M40.9524 31.2913H29.0536V9.90731H40.9527L40.9524 31.2913Z" fill="#FF5F00"/>
<path d="M29.808 20.5998C29.808 16.262 31.839 12.3979 35.0018 9.90776C32.6077 8.02005 29.6467 6.99551 26.598 7.00002C19.0878 7.00002 13 13.0887 13 20.5998C13 28.1108 19.0878 34.1995 26.598 34.1995C29.6468 34.204 32.6079 33.1795 35.002 31.2918C31.8395 28.802 29.808 24.9377 29.808 20.5998Z" fill="#EB001B"/>
<path d="M57.0055 20.5998C57.0055 28.1108 50.9177 34.1995 43.4075 34.1995C40.3584 34.204 37.3969 33.1795 35.0024 31.2918C38.166 28.8016 40.1971 24.9377 40.1971 20.5998C40.1971 16.2618 38.166 12.3979 35.0024 9.90776C37.3969 8.02009 40.3583 6.9956 43.4073 7.00002C50.9174 7.00002 57.0053 13.0887 57.0053 20.5998" fill="#F79E1B"/>
</g>
<defs>
<clipPath id="clip0_356_6403">
<rect width="44" height="34.232" fill="white" transform="translate(13 7)"/>
</clipPath>
</defs>
</svg>
