<svg width="64" height="48" viewBox="0 0 64 48" fill="none" xmlns="http://www.w3.org/2000/svg">
<rect width="64" height="48" rx="4" fill="white"/>
<g clip-path="url(#clip0_950_1717)">
<path d="M20.301 14.8944C21.5049 13.6084 23.1018 12.8571 24.978 12.8571C28.6329 12.8571 31.0561 15.5705 31.5198 19.6352C31.6701 20.9552 31.6687 22.8162 31.6672 24.9718C31.6669 25.1928 31.6669 25.417 31.6669 25.644V33.719H26.6407V27.7465C26.6407 27.7465 26.6304 22.6348 26.5997 21.6795C26.4648 17.5187 24.0422 14.9043 20.3005 14.9014C19.1716 16.1142 18.5667 17.5969 18.4775 19.8641C18.4652 20.1803 18.4683 21.3012 18.4723 22.7785C18.4745 23.5439 18.4768 24.4049 18.4775 25.2993C18.4812 29.1923 18.4775 33.7199 18.4775 33.7199H13.4512V24.5282C13.4512 24.2133 13.4456 23.8956 13.4399 23.5768C13.4285 22.9353 13.417 22.2889 13.4512 21.6489C13.508 20.5819 13.6895 19.533 14.1792 18.5585C15.3001 16.3262 17.5967 14.8889 20.0452 14.8889C20.1307 14.8889 20.2163 14.8909 20.301 14.8943V14.8944Z" fill="#820AD1"/>
<path d="M51.4771 25.4227C51.5113 24.7826 51.4998 24.1362 51.4885 23.4948C51.4828 23.1759 51.4771 22.8583 51.4771 22.5433V13.3516H46.451C46.451 13.3516 46.4472 17.8792 46.451 21.7721C46.4516 22.6665 46.4539 23.5276 46.456 24.293C46.4601 25.7703 46.4632 26.8911 46.451 27.2074C46.3618 29.4746 45.7568 30.9574 44.6279 32.1701C40.8862 32.1675 38.4637 29.5528 38.3288 25.3921C38.298 24.4367 38.285 22.066 38.285 19.3203V13.3477L33.2626 13.3524V21.4274C33.2626 21.6544 33.2623 21.8786 33.2623 22.0997C33.2607 24.2552 33.2594 26.1162 33.4097 27.4362C33.8723 31.501 36.2956 34.2143 39.9505 34.2143C41.8267 34.2143 43.4237 33.4631 44.6276 32.177C44.7122 32.1804 44.7977 32.1824 44.8833 32.1824C47.3316 32.1824 49.6283 30.7451 50.7492 28.5128C51.2389 27.5383 51.4204 26.4895 51.4772 25.4225L51.4771 25.4227Z" fill="#820AD1"/>
</g>
<defs>
<clipPath id="clip0_950_1717">
<rect width="52.0001" height="38.7798" fill="white" transform="translate(6 4.61012)"/>
</clipPath>
</defs>
</svg>
